<?xml version="1.0" encoding="UTF-8"?>
<svg id="Capa_1" data-name="Capa 1" xmlns="http://www.w3.org/2000/svg" xmlns:xlink="http://www.w3.org/1999/xlink" viewBox="0 0 2503.45 1222.17">
  <defs>
    <style>
      .cls-1 {
        filter: url(#drop-shadow-39);
      }

      .cls-1, .cls-2, .cls-3, .cls-4, .cls-5 {
        stroke-width: 0px;
      }

      .cls-1, .cls-3, .cls-4 {
        fill: #fff;
      }

      .cls-2 {
        fill: #d91111;
      }

      .cls-3 {
        filter: url(#drop-shadow-40);
      }

      .cls-5 {
        fill: #a81414;
      }
    </style>
    <filter id="drop-shadow-39" filterUnits="userSpaceOnUse">
      <feOffset dx="3" dy="3"/>
      <feGaussianBlur result="blur" stdDeviation="3"/>
      <feFlood flood-color="#26130a" flood-opacity=".5"/>
      <feComposite in2="blur" operator="in"/>
      <feComposite in="SourceGraphic"/>
    </filter>
    <filter id="drop-shadow-40" filterUnits="userSpaceOnUse">
      <feOffset dx="7" dy="7"/>
      <feGaussianBlur result="blur-2" stdDeviation="5"/>
      <feFlood flood-color="#26130a" flood-opacity=".5"/>
      <feComposite in2="blur-2" operator="in"/>
      <feComposite in="SourceGraphic"/>
    </filter>
  </defs>
  <circle class="cls-2" cx="606.33" cy="611.08" r="525.8" transform="translate(-254.51 607.72) rotate(-45)"/>
  <path class="cls-1" d="m2196.05,341.64H728.6v545.98h1467.45c125.29,0,226.86-101.57,226.86-226.86v-92.26c0-125.29-101.57-226.86-226.86-226.86Z"/>
  <path class="cls-5" d="m2228.57,384.68H802.21v459.89h1426.37c80.26,0,145.55-103.15,145.55-229.94s-65.3-229.94-145.55-229.94Z"/>
  <circle class="cls-3" cx="606.33" cy="611.08" r="387.04"/>
  <g>
    <path class="cls-4" d="m1313.58,541.02h32c11.12,0,19.24,2.59,24.34,7.75,5.1,5.17,7.66,13.12,7.66,23.85v8.44c0,14.26-4.71,23.29-14.13,27.09v.39c5.23,1.57,8.93,4.78,11.09,9.62,2.16,4.84,3.24,11.32,3.24,19.43v24.14c0,3.93.13,7.1.39,9.52.26,2.42.91,4.81,1.96,7.16h-21.98c-.79-2.22-1.31-4.32-1.57-6.28-.26-1.96-.39-5.5-.39-10.6v-25.12c0-6.28-1.02-10.66-3.04-13.15-2.03-2.48-5.53-3.73-10.5-3.73h-7.46v58.89h-21.59v-137.4Zm29.44,58.89c4.32,0,7.56-1.11,9.72-3.34,2.16-2.22,3.24-5.95,3.24-11.19v-10.6c0-4.97-.88-8.57-2.65-10.8-1.77-2.22-4.55-3.34-8.34-3.34h-9.81v39.26h7.85Z"/>
    <path class="cls-4" d="m1412.31,541.02h58.89v19.63h-37.29v36.31h29.64v19.63h-29.64v42.2h37.29v19.63h-58.89v-137.4Z"/>
    <path class="cls-4" d="m1503.19,541.02h31.8c10.73,0,18.78,2.88,24.14,8.64,5.36,5.76,8.05,14.2,8.05,25.32v13.54c0,11.12-2.68,19.56-8.05,25.32-5.37,5.76-13.42,8.64-24.14,8.64h-10.21v55.94h-21.59v-137.4Zm31.8,61.83c3.53,0,6.18-.98,7.95-2.94s2.65-5.3,2.65-10.01v-16.29c0-4.71-.88-8.05-2.65-10.01s-4.42-2.94-7.95-2.94h-10.21v42.2h10.21Z"/>
    <path class="cls-4" d="m1605.45,671.35c-5.63-6.02-8.44-14.53-8.44-25.52v-72.23c0-10.99,2.81-19.5,8.44-25.52,5.62-6.02,13.74-9.03,24.34-9.03s18.71,3.01,24.34,9.03c5.62,6.02,8.44,14.53,8.44,25.52v72.23c0,10.99-2.82,19.5-8.44,25.52-5.63,6.02-13.74,9.03-24.34,9.03s-18.71-3.01-24.34-9.03Zm35.53-24.14v-74.98c0-9.03-3.73-13.54-11.19-13.54s-11.19,4.51-11.19,13.54v74.98c0,9.03,3.73,13.54,11.19,13.54s11.19-4.51,11.19-13.54Z"/>
    <path class="cls-4" d="m1696.73,541.02h32c11.12,0,19.24,2.59,24.34,7.75,5.1,5.17,7.66,13.12,7.66,23.85v8.44c0,14.26-4.71,23.29-14.13,27.09v.39c5.23,1.57,8.93,4.78,11.09,9.62,2.16,4.84,3.24,11.32,3.24,19.43v24.14c0,3.93.13,7.1.39,9.52.26,2.42.91,4.81,1.96,7.16h-21.98c-.79-2.22-1.31-4.32-1.57-6.28-.26-1.96-.39-5.5-.39-10.6v-25.12c0-6.28-1.02-10.66-3.04-13.15-2.03-2.48-5.53-3.73-10.5-3.73h-7.46v58.89h-21.59v-137.4Zm29.44,58.89c4.32,0,7.56-1.11,9.72-3.34,2.16-2.22,3.24-5.95,3.24-11.19v-10.6c0-4.97-.88-8.57-2.65-10.8-1.77-2.22-4.55-3.34-8.34-3.34h-9.81v39.26h7.85Z"/>
    <path class="cls-4" d="m1811.95,560.65h-22.57v-19.63h66.74v19.63h-22.57v117.77h-21.59v-117.77Z"/>
    <path class="cls-4" d="m1886.15,541.02h58.89v19.63h-37.29v36.31h29.64v19.63h-29.64v42.2h37.29v19.63h-58.89v-137.4Z"/>
  </g>
  <path class="cls-2" d="m576.51,790.01s-29.82,0-29.82-29.82,29.82-119.28,149.1-119.28,149.1,89.46,149.1,119.28-29.82,29.82-29.82,29.82h-238.57Zm119.28-178.92c49.41,0,89.46-40.05,89.46-89.46s-40.05-89.46-89.46-89.46-89.46,40.05-89.46,89.46,40.05,89.46,89.46,89.46Zm-172.48,178.92c-4.42-9.31-6.63-19.52-6.44-29.82,0-40.41,20.28-82.01,57.73-110.93-18.69-5.76-38.17-8.58-57.73-8.35-119.28,0-149.1,89.46-149.1,119.28s29.82,29.82,29.82,29.82h125.72Zm-21.35-178.92c41.17,0,74.55-33.38,74.55-74.55s-33.38-74.55-74.55-74.55-74.55,33.38-74.55,74.55,33.38,74.55,74.55,74.55Z"/>
</svg>