<?xml version="1.0" encoding="UTF-8"?>
<svg id="Capa_1" data-name="Capa 1" xmlns="http://www.w3.org/2000/svg" xmlns:xlink="http://www.w3.org/1999/xlink" viewBox="0 0 2503.45 1222.17">
  <defs>
    <style>
      .cls-1 {
        fill: #d91111;
      }

      .cls-1, .cls-2, .cls-3, .cls-4, .cls-5 {
        stroke-width: 0px;
      }

      .cls-2 {
        filter: url(#drop-shadow-19);
      }

      .cls-2, .cls-3, .cls-4 {
        fill: #fff;
      }

      .cls-3 {
        filter: url(#drop-shadow-20);
      }

      .cls-5 {
        fill: #a81414;
      }
    </style>
    <filter id="drop-shadow-19" filterUnits="userSpaceOnUse">
      <feOffset dx="3" dy="3"/>
      <feGaussianBlur result="blur" stdDeviation="3"/>
      <feFlood flood-color="#26130a" flood-opacity=".5"/>
      <feComposite in2="blur" operator="in"/>
      <feComposite in="SourceGraphic"/>
    </filter>
    <filter id="drop-shadow-20" filterUnits="userSpaceOnUse">
      <feOffset dx="7" dy="7"/>
      <feGaussianBlur result="blur-2" stdDeviation="5"/>
      <feFlood flood-color="#26130a" flood-opacity=".5"/>
      <feComposite in2="blur-2" operator="in"/>
      <feComposite in="SourceGraphic"/>
    </filter>
  </defs>
  <circle class="cls-1" cx="606.33" cy="611.08" r="525.8" transform="translate(-254.51 607.72) rotate(-45)"/>
  <path class="cls-2" d="m2196.05,341.64H728.6v545.98h1467.45c125.29,0,226.86-101.57,226.86-226.86v-92.26c0-125.29-101.57-226.86-226.86-226.86Z"/>
  <path class="cls-5" d="m2228.57,384.68H802.21v459.89h1426.37c80.26,0,145.55-103.15,145.55-229.94s-65.3-229.94-145.55-229.94Z"/>
  <circle class="cls-3" cx="606.33" cy="611.08" r="387.04"/>
  <g>
    <path class="cls-4" d="m1304.84,467.41h57.12v19.63h-35.53v38.28h27.87v19.63h-27.87v59.87h-21.59v-137.4Z"/>
    <path class="cls-4" d="m1391.99,467.41h21.59v137.4h-21.59v-137.4Z"/>
    <path class="cls-4" d="m1456.08,597.94c-5.43-5.89-8.15-14.2-8.15-24.93v-73.8c0-10.73,2.71-19.04,8.15-24.93,5.43-5.89,13.31-8.83,23.65-8.83s18.22,2.94,23.65,8.83c5.43,5.89,8.15,14.2,8.15,24.93v14.53h-20.41v-15.9c0-8.5-3.6-12.76-10.79-12.76s-10.8,4.25-10.8,12.76v76.75c0,8.38,3.6,12.56,10.8,12.56s10.79-4.19,10.79-12.56v-21h20.41v19.43c0,10.73-2.72,19.04-8.15,24.93-5.43,5.89-13.32,8.83-23.65,8.83s-18.22-2.94-23.65-8.83Z"/>
    <path class="cls-4" d="m1544.11,467.41h21.59v55.94h23.16v-55.94h21.59v137.4h-21.59v-61.83h-23.16v61.83h-21.59v-137.4Z"/>
    <path class="cls-4" d="m1662.87,467.41h29.25l22.38,137.4h-21.59l-3.93-27.28v.39h-24.54l-3.93,26.89h-20.02l22.38-137.4Zm23.55,91.86l-9.62-67.92h-.39l-9.42,67.92h19.43Z"/>
    <path class="cls-4" d="m1795.55,467.41h32.98c10.73,0,18.78,2.88,24.14,8.64,5.36,5.76,8.05,14.2,8.05,25.32v69.49c0,11.12-2.68,19.56-8.05,25.32-5.37,5.76-13.42,8.64-24.14,8.64h-32.98v-137.4Zm32.58,117.77c3.53,0,6.25-1.05,8.15-3.14,1.89-2.09,2.85-5.5,2.85-10.21v-71.45c0-4.71-.95-8.11-2.85-10.21-1.9-2.09-4.61-3.14-8.15-3.14h-10.99v98.14h10.99Z"/>
    <path class="cls-4" d="m1894.87,467.41h58.89v19.63h-37.29v36.31h29.64v19.63h-29.64v42.2h37.29v19.63h-58.89v-137.4Z"/>
    <path class="cls-4" d="m1141.82,639.16h58.89v19.63h-37.29v36.31h29.64v19.63h-29.64v42.2h37.29v19.63h-58.89v-137.4Z"/>
    <path class="cls-4" d="m1237.41,769.59c-5.37-5.95-8.05-14.49-8.05-25.62v-7.85h20.41v9.42c0,8.9,3.73,13.35,11.19,13.35,3.66,0,6.44-1.08,8.34-3.24,1.9-2.16,2.85-5.66,2.85-10.5,0-5.76-1.31-10.83-3.93-15.21-2.62-4.38-7.46-9.65-14.53-15.8-8.9-7.85-15.12-14.95-18.65-21.3-3.53-6.35-5.3-13.51-5.3-21.49,0-10.86,2.75-19.27,8.24-25.22,5.5-5.95,13.48-8.93,23.95-8.93s18.16,2.98,23.46,8.93c5.3,5.96,7.95,14.5,7.95,25.62v5.69h-20.41v-7.07c0-4.71-.92-8.15-2.75-10.31-1.83-2.16-4.52-3.24-8.05-3.24-7.2,0-10.79,4.39-10.79,13.15,0,4.97,1.34,9.62,4.02,13.94,2.68,4.32,7.56,9.55,14.62,15.7,9.03,7.85,15.24,14.99,18.65,21.4,3.4,6.41,5.1,13.94,5.1,22.57,0,11.26-2.78,19.89-8.34,25.91-5.56,6.02-13.64,9.03-24.24,9.03s-18.39-2.98-23.75-8.93Z"/>
    <path class="cls-4" d="m1342.63,658.79h-22.57v-19.63h66.74v19.63h-22.57v117.77h-21.59v-117.77Z"/>
    <path class="cls-4" d="m1424.28,769.59c-5.5-5.95-8.24-14.49-8.24-25.62v-104.82h21.59v106.39c0,4.71.95,8.12,2.85,10.21,1.89,2.09,4.61,3.14,8.15,3.14s6.25-1.05,8.14-3.14c1.9-2.09,2.85-5.5,2.85-10.21v-106.39h20.81v104.82c0,11.12-2.75,19.66-8.24,25.62-5.5,5.96-13.48,8.93-23.95,8.93s-18.45-2.98-23.95-8.93Z"/>
    <path class="cls-4" d="m1515.36,639.16h32.98c10.73,0,18.78,2.88,24.14,8.64,5.37,5.76,8.05,14.2,8.05,25.32v69.49c0,11.12-2.68,19.56-8.05,25.32-5.37,5.76-13.41,8.64-24.14,8.64h-32.98v-137.4Zm32.58,117.77c3.53,0,6.25-1.05,8.14-3.14,1.9-2.09,2.85-5.5,2.85-10.21v-71.45c0-4.71-.95-8.11-2.85-10.21-1.9-2.09-4.61-3.14-8.14-3.14h-10.99v98.14h10.99Z"/>
    <path class="cls-4" d="m1614.68,639.16h21.59v137.4h-21.59v-137.4Z"/>
    <path class="cls-4" d="m1688.68,639.16h29.25l22.38,137.4h-21.59l-3.93-27.28v.39h-24.54l-3.93,26.89h-20.02l22.38-137.4Zm23.55,91.86l-9.62-67.92h-.39l-9.42,67.92h19.43Z"/>
    <path class="cls-4" d="m1770.33,639.16h27.09l21,82.25h.39v-82.25h19.24v137.4h-22.18l-25.91-100.3h-.39v100.3h-19.24v-137.4Z"/>
    <path class="cls-4" d="m1890.65,658.79h-22.57v-19.63h66.74v19.63h-22.57v117.77h-21.59v-117.77Z"/>
    <path class="cls-4" d="m1964.85,639.16h58.89v19.63h-37.29v36.31h29.64v19.63h-29.64v42.2h37.29v19.63h-58.89v-137.4Z"/>
    <path class="cls-4" d="m2060.44,769.59c-5.37-5.95-8.05-14.49-8.05-25.62v-7.85h20.41v9.42c0,8.9,3.73,13.35,11.19,13.35,3.66,0,6.44-1.08,8.34-3.24,1.89-2.16,2.85-5.66,2.85-10.5,0-5.76-1.31-10.83-3.93-15.21-2.62-4.38-7.46-9.65-14.53-15.8-8.9-7.85-15.11-14.95-18.65-21.3-3.53-6.35-5.3-13.51-5.3-21.49,0-10.86,2.75-19.27,8.24-25.22,5.5-5.95,13.48-8.93,23.95-8.93s18.16,2.98,23.46,8.93c5.3,5.96,7.95,14.5,7.95,25.62v5.69h-20.41v-7.07c0-4.71-.92-8.15-2.75-10.31-1.83-2.16-4.51-3.24-8.05-3.24-7.2,0-10.8,4.39-10.8,13.15,0,4.97,1.34,9.62,4.02,13.94,2.68,4.32,7.56,9.55,14.62,15.7,9.03,7.85,15.24,14.99,18.65,21.4,3.4,6.41,5.1,13.94,5.1,22.57,0,11.26-2.78,19.89-8.34,25.91-5.56,6.02-13.64,9.03-24.24,9.03s-18.39-2.98-23.75-8.93Z"/>
  </g>
  <path class="cls-1" d="m642.63,386.49h-148.6c-31.01,0-56.15,25.14-56.15,56.15v336.89c0,31.01,25.14,56.15,56.15,56.15h224.6c31.01,0,56.15-25.14,56.15-56.15v-260.9c0-7.45-2.96-14.58-8.23-19.85l-104.07-104.07c-5.26-5.27-12.4-8.22-19.85-8.23Zm5.81,98.26v-56.15l84.22,84.22h-56.15c-15.51,0-28.07-12.57-28.07-28.07Zm42.11,126.34c0,46.52-37.71,84.22-84.22,84.22s-84.22-37.71-84.22-84.22,37.71-84.22,84.22-84.22,84.22,37.71,84.22,84.22Zm56.15,161.57v6.88c0,15.51-12.57,28.07-28.07,28.07h-224.6c-15.51,0-28.07-12.57-28.07-28.07v-6.88s28.07-49.27,140.37-49.27,140.37,49.27,140.37,49.27Z"/>
</svg>