<?xml version="1.0" encoding="UTF-8"?>
<svg id="Capa_1" data-name="Capa 1" xmlns="http://www.w3.org/2000/svg" xmlns:xlink="http://www.w3.org/1999/xlink" viewBox="0 0 2503.45 1222.17">
  <defs>
    <style>
      .cls-1 {
        fill: #d91111;
      }

      .cls-1, .cls-2, .cls-3, .cls-4, .cls-5 {
        stroke-width: 0px;
      }

      .cls-2, .cls-3, .cls-5 {
        fill: #fff;
      }

      .cls-3 {
        filter: url(#drop-shadow-16);
      }

      .cls-4 {
        fill: #a81414;
      }

      .cls-5 {
        filter: url(#drop-shadow-15);
      }
    </style>
    <filter id="drop-shadow-15" filterUnits="userSpaceOnUse">
      <feOffset dx="3" dy="3"/>
      <feGaussianBlur result="blur" stdDeviation="3"/>
      <feFlood flood-color="#26130a" flood-opacity=".5"/>
      <feComposite in2="blur" operator="in"/>
      <feComposite in="SourceGraphic"/>
    </filter>
    <filter id="drop-shadow-16" filterUnits="userSpaceOnUse">
      <feOffset dx="7" dy="7"/>
      <feGaussianBlur result="blur-2" stdDeviation="5"/>
      <feFlood flood-color="#26130a" flood-opacity=".5"/>
      <feComposite in2="blur-2" operator="in"/>
      <feComposite in="SourceGraphic"/>
    </filter>
  </defs>
  <circle class="cls-1" cx="606.33" cy="611.08" r="525.8" transform="translate(-254.51 607.72) rotate(-45)"/>
  <path class="cls-5" d="m2196.05,341.64H728.6v545.98h1467.45c125.29,0,226.86-101.57,226.86-226.86v-92.26c0-125.29-101.57-226.86-226.86-226.86Z"/>
  <path class="cls-4" d="m2228.57,384.68H802.21v459.89h1426.37c80.26,0,145.55-103.15,145.55-229.94s-65.3-229.94-145.55-229.94Z"/>
  <circle class="cls-3" cx="606.33" cy="611.08" r="387.04"/>
  <g>
    <path class="cls-2" d="m1065.86,597.85c-5.37-5.95-8.05-14.49-8.05-25.62v-7.85h20.41v9.42c0,8.9,3.73,13.35,11.19,13.35,3.66,0,6.44-1.08,8.34-3.24,1.9-2.16,2.85-5.66,2.85-10.5,0-5.76-1.31-10.83-3.93-15.21-2.62-4.38-7.46-9.65-14.53-15.8-8.9-7.85-15.11-14.95-18.65-21.3-3.53-6.35-5.3-13.51-5.3-21.49,0-10.86,2.75-19.27,8.24-25.22,5.5-5.95,13.48-8.93,23.95-8.93s18.16,2.98,23.46,8.93c5.3,5.96,7.95,14.5,7.95,25.62v5.69h-20.41v-7.07c0-4.71-.92-8.15-2.75-10.31-1.83-2.16-4.51-3.24-8.05-3.24-7.2,0-10.8,4.39-10.8,13.15,0,4.97,1.34,9.62,4.02,13.94,2.68,4.32,7.56,9.55,14.62,15.7,9.03,7.85,15.24,14.99,18.65,21.4,3.4,6.41,5.1,13.94,5.1,22.57,0,11.26-2.78,19.89-8.34,25.91-5.56,6.02-13.64,9.03-24.24,9.03s-18.39-2.98-23.75-8.93Z"/>
    <path class="cls-2" d="m1154.19,467.41h21.59v137.4h-21.59v-137.4Z"/>
    <path class="cls-2" d="m1215.83,597.85c-5.37-5.95-8.05-14.49-8.05-25.62v-7.85h20.41v9.42c0,8.9,3.73,13.35,11.19,13.35,3.66,0,6.44-1.08,8.34-3.24,1.9-2.16,2.85-5.66,2.85-10.5,0-5.76-1.31-10.83-3.93-15.21-2.62-4.38-7.46-9.65-14.53-15.8-8.9-7.85-15.11-14.95-18.65-21.3-3.53-6.35-5.3-13.51-5.3-21.49,0-10.86,2.75-19.27,8.24-25.22,5.5-5.95,13.48-8.93,23.95-8.93s18.16,2.98,23.46,8.93c5.3,5.96,7.95,14.5,7.95,25.62v5.69h-20.41v-7.07c0-4.71-.92-8.15-2.75-10.31-1.83-2.16-4.51-3.24-8.05-3.24-7.2,0-10.8,4.39-10.8,13.15,0,4.97,1.34,9.62,4.02,13.94,2.68,4.32,7.56,9.55,14.62,15.7,9.03,7.85,15.24,14.99,18.65,21.4,3.4,6.41,5.1,13.94,5.1,22.57,0,11.26-2.78,19.89-8.34,25.91-5.56,6.02-13.64,9.03-24.24,9.03s-18.39-2.98-23.75-8.93Z"/>
    <path class="cls-2" d="m1321.04,487.04h-22.57v-19.63h66.74v19.63h-22.57v117.77h-21.59v-117.77Z"/>
    <path class="cls-2" d="m1395.23,467.41h58.89v19.63h-37.29v36.31h29.64v19.63h-29.64v42.2h37.29v19.63h-58.89v-137.4Z"/>
    <path class="cls-2" d="m1486.11,467.41h30.82l13.74,98.34h.39l13.74-98.34h30.82v137.4h-20.41v-104.03h-.39l-15.7,104.03h-18.06l-15.7-104.03h-.39v104.03h-18.84v-137.4Z"/>
    <path class="cls-2" d="m1628.03,467.41h29.25l22.38,137.4h-21.59l-3.93-27.28v.39h-24.54l-3.93,26.89h-20.02l22.38-137.4Zm23.55,91.86l-9.62-67.92h-.39l-9.42,67.92h19.43Z"/>
    <path class="cls-2" d="m1760.71,467.41h21.59v137.4h-21.59v-137.4Z"/>
    <path class="cls-2" d="m1818.03,467.41h27.09l21,82.25h.39v-82.25h19.24v137.4h-22.18l-25.91-100.3h-.39v100.3h-19.24v-137.4Z"/>
    <path class="cls-2" d="m1921.47,467.41h21.59v137.4h-21.59v-137.4Z"/>
    <path class="cls-2" d="m1985.55,597.94c-5.43-5.89-8.15-14.2-8.15-24.93v-73.8c0-10.73,2.71-19.04,8.15-24.93,5.43-5.89,13.31-8.83,23.65-8.83s18.22,2.94,23.65,8.83c5.43,5.89,8.15,14.2,8.15,24.93v14.53h-20.41v-15.9c0-8.5-3.6-12.76-10.8-12.76s-10.8,4.25-10.8,12.76v76.75c0,8.38,3.6,12.56,10.8,12.56s10.8-4.19,10.8-12.56v-21h20.41v19.43c0,10.73-2.72,19.04-8.15,24.93-5.43,5.89-13.32,8.83-23.65,8.83s-18.22-2.94-23.65-8.83Z"/>
    <path class="cls-2" d="m2073.59,467.41h21.59v137.4h-21.59v-137.4Z"/>
    <path class="cls-2" d="m2137.77,597.75c-5.63-6.02-8.44-14.53-8.44-25.52v-72.23c0-10.99,2.81-19.5,8.44-25.52,5.62-6.02,13.74-9.03,24.34-9.03s18.71,3.01,24.34,9.03c5.62,6.02,8.44,14.53,8.44,25.52v72.23c0,10.99-2.82,19.5-8.44,25.52-5.63,6.02-13.74,9.03-24.34,9.03s-18.71-3.01-24.34-9.03Zm35.53-24.14v-74.98c0-9.03-3.73-13.54-11.19-13.54s-11.19,4.51-11.19,13.54v74.98c0,9.03,3.73,13.54,11.19,13.54s11.19-4.51,11.19-13.54Z"/>
    <path class="cls-2" d="m1262.93,769.6c-5.37-5.95-8.05-14.49-8.05-25.62v-7.85h20.41v9.42c0,8.9,3.73,13.35,11.19,13.35,3.66,0,6.44-1.08,8.34-3.24,1.9-2.16,2.85-5.66,2.85-10.5,0-5.76-1.31-10.83-3.93-15.21-2.62-4.38-7.46-9.65-14.53-15.8-8.9-7.85-15.11-14.95-18.65-21.3-3.53-6.35-5.3-13.51-5.3-21.49,0-10.86,2.75-19.27,8.24-25.22,5.5-5.95,13.48-8.93,23.95-8.93s18.16,2.98,23.46,8.93c5.3,5.96,7.95,14.5,7.95,25.62v5.69h-20.41v-7.07c0-4.71-.92-8.15-2.75-10.31-1.83-2.16-4.51-3.24-8.05-3.24-7.2,0-10.8,4.39-10.8,13.15,0,4.97,1.34,9.62,4.02,13.94,2.68,4.32,7.56,9.55,14.62,15.7,9.03,7.85,15.24,14.99,18.65,21.4,3.4,6.41,5.1,13.94,5.1,22.57,0,11.26-2.78,19.89-8.34,25.91-5.56,6.02-13.64,9.03-24.24,9.03s-18.39-2.98-23.75-8.93Z"/>
    <path class="cls-2" d="m1351.26,639.16h58.89v19.63h-37.29v36.31h29.64v19.63h-29.64v42.2h37.29v19.63h-58.89v-137.4Z"/>
    <path class="cls-2" d="m1442.14,639.16h30.82l13.74,98.34h.39l13.74-98.34h30.82v137.4h-20.41v-104.03h-.39l-15.7,104.03h-18.06l-15.7-104.03h-.39v104.03h-18.84v-137.4Z"/>
    <path class="cls-2" d="m1567.37,639.16h58.89v19.63h-37.29v36.31h29.64v19.63h-29.64v42.2h37.29v19.63h-58.89v-137.4Z"/>
    <path class="cls-2" d="m1662.96,769.6c-5.37-5.95-8.05-14.49-8.05-25.62v-7.85h20.41v9.42c0,8.9,3.73,13.35,11.19,13.35,3.66,0,6.44-1.08,8.34-3.24,1.9-2.16,2.85-5.66,2.85-10.5,0-5.76-1.31-10.83-3.93-15.21-2.62-4.38-7.46-9.65-14.53-15.8-8.9-7.85-15.11-14.95-18.65-21.3-3.53-6.35-5.3-13.51-5.3-21.49,0-10.86,2.75-19.27,8.24-25.22,5.5-5.95,13.48-8.93,23.95-8.93s18.16,2.98,23.46,8.93c5.3,5.96,7.95,14.5,7.95,25.62v5.69h-20.41v-7.07c0-4.71-.92-8.15-2.75-10.31-1.83-2.16-4.51-3.24-8.05-3.24-7.2,0-10.8,4.39-10.8,13.15,0,4.97,1.34,9.62,4.02,13.94,2.68,4.32,7.56,9.55,14.62,15.7,9.03,7.85,15.24,14.99,18.65,21.4,3.4,6.41,5.1,13.94,5.1,22.57,0,11.26-2.78,19.89-8.34,25.91-5.56,6.02-13.64,9.03-24.24,9.03s-18.39-2.98-23.75-8.93Z"/>
    <path class="cls-2" d="m1768.17,658.79h-22.57v-19.63h66.74v19.63h-22.57v117.77h-21.59v-117.77Z"/>
    <path class="cls-2" d="m1842.37,639.16h32c11.12,0,19.24,2.59,24.34,7.75,5.1,5.17,7.66,13.12,7.66,23.85v8.44c0,14.26-4.71,23.29-14.13,27.09v.39c5.23,1.57,8.93,4.78,11.09,9.62,2.16,4.84,3.24,11.32,3.24,19.43v24.14c0,3.93.13,7.1.39,9.52.26,2.42.91,4.81,1.96,7.16h-21.98c-.79-2.22-1.31-4.32-1.57-6.28-.26-1.96-.39-5.5-.39-10.6v-25.12c0-6.28-1.02-10.66-3.04-13.15-2.03-2.48-5.53-3.73-10.5-3.73h-7.46v58.89h-21.59v-137.4Zm29.44,58.89c4.32,0,7.56-1.11,9.72-3.34,2.16-2.22,3.24-5.95,3.24-11.19v-10.6c0-4.97-.88-8.57-2.65-10.8-1.77-2.22-4.55-3.34-8.34-3.34h-9.81v39.26h7.85Z"/>
    <path class="cls-2" d="m1941.1,639.16h58.89v19.63h-37.29v36.31h29.64v19.63h-29.64v42.2h37.29v19.63h-58.89v-137.4Z"/>
  </g>
  <g>
    <path class="cls-1" d="m785.23,473.47c7.6,0,13.76,6.16,13.76,13.76v247.71c0,7.6-6.16,13.76-13.76,13.76h-357.8c-7.6,0-13.76-6.16-13.76-13.76v-247.71c0-7.6,6.16-13.76,13.76-13.76h357.8Zm-357.8-27.52c-22.8,0-41.28,18.48-41.28,41.28v247.71c0,22.8,18.48,41.28,41.28,41.28h357.8c22.8,0,41.28-18.48,41.28-41.28v-247.71c0-22.8-18.48-41.28-41.28-41.28h-357.8Z"/>
    <path class="cls-1" d="m578.8,542.28c0-7.6,6.16-13.76,13.76-13.76h137.61c7.6,0,13.76,6.16,13.76,13.76s-6.16,13.76-13.76,13.76h-137.61c-7.6,0-13.76-6.16-13.76-13.76Zm-41.17-23.5c5.38,5.37,5.39,14.08.02,19.46,0,0-.02.02-.02.02l-41.28,41.28c-5.37,5.38-14.08,5.39-19.46.02,0,0-.02-.02-.02-.02l-13.76-13.76c-5.38-5.38-5.38-14.11,0-19.49,5.38-5.38,14.11-5.38,19.49,0h0l4.02,4.05,31.54-31.57c5.37-5.38,14.08-5.39,19.46-.02,0,0,.02.02.02.02Zm41.17,133.6c0-7.6,6.16-13.76,13.76-13.76h137.61c7.6,0,13.76,6.16,13.76,13.76s-6.16,13.76-13.76,13.76h-137.61c-7.6,0-13.76-6.16-13.76-13.76Zm-41.17-23.5c5.38,5.37,5.39,14.08.02,19.46,0,0-.02.02-.02.02l-41.28,41.28c-5.37,5.38-14.08,5.39-19.46.02,0,0-.02-.02-.02-.02l-13.76-13.76c-5.38-5.38-5.38-14.11,0-19.49,5.38-5.38,14.11-5.38,19.49,0l4.02,4.05,31.54-31.57c5.37-5.38,14.08-5.39,19.46-.02,0,0,.02.02.02.02Z"/>
  </g>
</svg>