<?xml version="1.0" encoding="UTF-8"?>
<svg id="Capa_1" data-name="Capa 1" xmlns="http://www.w3.org/2000/svg" xmlns:xlink="http://www.w3.org/1999/xlink" viewBox="0 0 2503.45 1222.17">
  <defs>
    <style>
      .cls-1 {
        fill: #d91111;
      }

      .cls-1, .cls-2, .cls-3, .cls-4, .cls-5 {
        stroke-width: 0px;
      }

      .cls-2, .cls-3, .cls-4 {
        fill: #fff;
      }

      .cls-3 {
        filter: url(#drop-shadow-5);
      }

      .cls-4 {
        filter: url(#drop-shadow-6);
      }

      .cls-5 {
        fill: #a81414;
      }
    </style>
    <filter id="drop-shadow-5" filterUnits="userSpaceOnUse">
      <feOffset dx="3" dy="3"/>
      <feGaussianBlur result="blur" stdDeviation="3"/>
      <feFlood flood-color="#26130a" flood-opacity=".5"/>
      <feComposite in2="blur" operator="in"/>
      <feComposite in="SourceGraphic"/>
    </filter>
    <filter id="drop-shadow-6" filterUnits="userSpaceOnUse">
      <feOffset dx="7" dy="7"/>
      <feGaussianBlur result="blur-2" stdDeviation="5"/>
      <feFlood flood-color="#26130a" flood-opacity=".5"/>
      <feComposite in2="blur-2" operator="in"/>
      <feComposite in="SourceGraphic"/>
    </filter>
  </defs>
  <circle class="cls-1" cx="606.33" cy="611.08" r="525.8" transform="translate(-254.51 607.72) rotate(-45)"/>
  <path class="cls-3" d="m2196.05,341.64H728.6v545.98h1467.45c125.29,0,226.86-101.57,226.86-226.86v-92.26c0-125.29-101.57-226.86-226.86-226.86Z"/>
  <path class="cls-5" d="m2228.57,384.68H802.21v459.89h1426.37c80.26,0,145.55-103.15,145.55-229.94s-65.3-229.94-145.55-229.94Z"/>
  <circle class="cls-4" cx="606.33" cy="611.08" r="387.04"/>
  <g>
    <path class="cls-2" d="m1134.36,597.85c-5.37-5.95-8.05-14.49-8.05-25.62v-7.85h20.41v9.42c0,8.9,3.73,13.35,11.19,13.35,3.66,0,6.44-1.08,8.34-3.24,1.9-2.16,2.85-5.66,2.85-10.5,0-5.76-1.31-10.83-3.93-15.21-2.62-4.38-7.46-9.65-14.53-15.8-8.9-7.85-15.11-14.95-18.65-21.3-3.53-6.35-5.3-13.51-5.3-21.49,0-10.86,2.75-19.27,8.24-25.22,5.5-5.95,13.48-8.93,23.95-8.93s18.16,2.98,23.46,8.93c5.3,5.96,7.95,14.5,7.95,25.62v5.69h-20.41v-7.07c0-4.71-.92-8.15-2.75-10.31-1.83-2.16-4.51-3.24-8.05-3.24-7.2,0-10.8,4.39-10.8,13.15,0,4.97,1.34,9.62,4.02,13.94,2.68,4.32,7.56,9.55,14.62,15.7,9.03,7.85,15.24,14.99,18.65,21.4,3.4,6.41,5.1,13.94,5.1,22.57,0,11.26-2.78,19.89-8.34,25.91-5.56,6.02-13.64,9.03-24.24,9.03s-18.39-2.98-23.75-8.93Z"/>
    <path class="cls-2" d="m1222.69,467.41h58.89v19.63h-37.29v36.31h29.64v19.63h-29.64v42.2h37.29v19.63h-58.89v-137.4Z"/>
    <path class="cls-2" d="m1313.57,467.41h30.82l13.74,98.34h.39l13.74-98.34h30.82v137.4h-20.41v-104.03h-.39l-15.7,104.03h-18.06l-15.7-104.03h-.39v104.03h-18.84v-137.4Z"/>
    <path class="cls-2" d="m1455.49,467.41h29.25l22.38,137.4h-21.59l-3.93-27.28v.39h-24.54l-3.93,26.89h-20.02l22.38-137.4Zm16.68-31.8h23.55l-21,22.57h-16.29l13.74-22.57Zm6.87,123.66l-9.62-67.92h-.39l-9.42,67.92h19.43Z"/>
    <path class="cls-2" d="m1537.14,467.41h57.12v19.63h-35.53v38.28h27.87v19.63h-27.87v59.87h-21.59v-137.4Z"/>
    <path class="cls-2" d="m1631.16,597.75c-5.63-6.02-8.44-14.53-8.44-25.52v-72.23c0-10.99,2.81-19.5,8.44-25.52,5.62-6.02,13.74-9.03,24.34-9.03s18.71,3.01,24.34,9.03c5.62,6.02,8.44,14.53,8.44,25.52v72.23c0,10.99-2.82,19.5-8.44,25.52-5.63,6.02-13.74,9.03-24.34,9.03s-18.71-3.01-24.34-9.03Zm35.53-24.14v-74.98c0-9.03-3.73-13.54-11.19-13.54s-11.19,4.51-11.19,13.54v74.98c0,9.03,3.73,13.54,11.19,13.54s11.19-4.51,11.19-13.54Z"/>
    <path class="cls-2" d="m1722.44,467.41h32c11.12,0,19.24,2.59,24.34,7.75,5.1,5.17,7.66,13.12,7.66,23.85v8.44c0,14.26-4.71,23.29-14.13,27.09v.39c5.23,1.57,8.93,4.78,11.09,9.62,2.16,4.84,3.24,11.32,3.24,19.43v24.14c0,3.93.13,7.1.39,9.52.26,2.42.91,4.81,1.96,7.16h-21.98c-.79-2.22-1.31-4.32-1.57-6.28-.26-1.96-.39-5.5-.39-10.6v-25.12c0-6.28-1.02-10.66-3.04-13.15-2.03-2.48-5.53-3.73-10.5-3.73h-7.46v58.89h-21.59v-137.4Zm29.44,58.89c4.32,0,7.56-1.11,9.72-3.34,2.16-2.22,3.24-5.95,3.24-11.19v-10.6c0-4.97-.88-8.57-2.65-10.8-1.77-2.22-4.55-3.34-8.34-3.34h-9.81v39.26h7.85Z"/>
    <path class="cls-2" d="m1828.04,597.75c-5.63-6.02-8.44-14.53-8.44-25.52v-72.23c0-10.99,2.81-19.5,8.44-25.52,5.62-6.02,13.74-9.03,24.34-9.03s18.71,3.01,24.34,9.03c5.62,6.02,8.44,14.53,8.44,25.52v72.23c0,10.99-2.82,19.5-8.44,25.52-5.63,6.02-13.74,9.03-24.34,9.03s-18.71-3.01-24.34-9.03Zm35.53-24.14v-74.98c0-9.03-3.73-13.54-11.19-13.54s-11.19,4.51-11.19,13.54v74.98c0,9.03,3.73,13.54,11.19,13.54s11.19-4.51,11.19-13.54Z"/>
    <path class="cls-2" d="m1970.35,467.41h32.98c10.73,0,18.78,2.88,24.14,8.64,5.36,5.76,8.05,14.2,8.05,25.32v69.49c0,11.12-2.68,19.56-8.05,25.32-5.37,5.76-13.42,8.64-24.14,8.64h-32.98v-137.4Zm32.58,117.77c3.53,0,6.25-1.05,8.15-3.14,1.9-2.09,2.85-5.5,2.85-10.21v-71.45c0-4.71-.95-8.11-2.85-10.21-1.9-2.09-4.61-3.14-8.15-3.14h-10.99v98.14h10.99Z"/>
    <path class="cls-2" d="m2069.67,467.41h58.89v19.63h-37.29v36.31h29.64v19.63h-29.64v42.2h37.29v19.63h-58.89v-137.4Z"/>
    <path class="cls-2" d="m1338.4,639.16h29.25l22.38,137.4h-21.59l-3.93-27.28v.39h-24.54l-3.93,26.89h-20.02l22.38-137.4Zm23.55,91.86l-9.62-67.92h-.39l-9.42,67.92h19.43Z"/>
    <path class="cls-2" d="m1420.05,639.16h21.59v117.77h35.53v19.63h-57.12v-137.4Z"/>
    <path class="cls-2" d="m1507.2,639.16h58.89v19.63h-37.29v36.31h29.64v19.63h-29.64v42.2h37.29v19.63h-58.89v-137.4Z"/>
    <path class="cls-2" d="m1598.08,639.16h32c11.12,0,19.24,2.59,24.34,7.75,5.1,5.17,7.66,13.12,7.66,23.85v8.44c0,14.26-4.71,23.29-14.13,27.09v.39c5.23,1.57,8.93,4.78,11.09,9.62,2.16,4.84,3.24,11.32,3.24,19.43v24.14c0,3.93.13,7.1.39,9.52.26,2.42.91,4.81,1.96,7.16h-21.98c-.79-2.22-1.31-4.32-1.57-6.28-.26-1.96-.39-5.5-.39-10.6v-25.12c0-6.28-1.02-10.66-3.04-13.15-2.03-2.48-5.53-3.73-10.5-3.73h-7.46v58.89h-21.59v-137.4Zm29.44,58.89c4.32,0,7.56-1.11,9.72-3.34,2.16-2.22,3.24-5.95,3.24-11.19v-10.6c0-4.97-.88-8.57-2.65-10.8-1.77-2.22-4.55-3.34-8.34-3.34h-9.81v39.26h7.85Z"/>
    <path class="cls-2" d="m1713.31,658.79h-22.57v-19.63h66.74v19.63h-22.57v117.77h-21.59v-117.77Z"/>
    <path class="cls-2" d="m1795.16,639.16h29.25l22.38,137.4h-21.59l-3.93-27.28v.39h-24.54l-3.93,26.89h-20.02l22.38-137.4Zm23.55,91.86l-9.62-67.92h-.39l-9.42,67.92h19.43Z"/>
    <path class="cls-2" d="m1880.55,769.6c-5.37-5.95-8.05-14.49-8.05-25.62v-7.85h20.41v9.42c0,8.9,3.73,13.35,11.19,13.35,3.66,0,6.44-1.08,8.34-3.24,1.9-2.16,2.85-5.66,2.85-10.5,0-5.76-1.31-10.83-3.93-15.21-2.62-4.38-7.46-9.65-14.53-15.8-8.9-7.85-15.11-14.95-18.65-21.3-3.53-6.35-5.3-13.51-5.3-21.49,0-10.86,2.75-19.27,8.24-25.22,5.5-5.95,13.48-8.93,23.95-8.93s18.16,2.98,23.46,8.93c5.3,5.96,7.95,14.5,7.95,25.62v5.69h-20.41v-7.07c0-4.71-.92-8.15-2.75-10.31-1.83-2.16-4.51-3.24-8.05-3.24-7.2,0-10.8,4.39-10.8,13.15,0,4.97,1.34,9.62,4.02,13.94,2.68,4.32,7.56,9.55,14.62,15.7,9.03,7.85,15.24,14.99,18.65,21.4,3.4,6.41,5.1,13.94,5.1,22.57,0,11.26-2.78,19.89-8.34,25.91-5.56,6.02-13.64,9.03-24.24,9.03s-18.39-2.98-23.75-8.93Z"/>
  </g>
  <g>
    <path class="cls-1" d="m606.33,535.35c25.1,0,45.44-20.35,45.44-45.44s-20.35-45.44-45.44-45.44-45.44,20.35-45.44,45.44,20.35,45.44,45.44,45.44Zm0,121.18c25.1,0,45.44-20.35,45.44-45.44s-20.35-45.44-45.44-45.44-45.44,20.35-45.44,45.44,20.35,45.44,45.44,45.44Zm45.44,75.74c0,25.1-20.35,45.44-45.44,45.44s-45.44-20.35-45.44-45.44,20.35-45.44,45.44-45.44,45.44,20.35,45.44,45.44Z"/>
    <path class="cls-1" d="m485.15,444.46c0-33.46,27.13-60.59,60.59-60.59h121.18c33.46,0,60.59,27.13,60.59,60.59h60.59c-5.06,15.15-24.24,48.47-60.59,60.59v60.59h60.59c-5.06,15.15-24.24,48.47-60.59,60.59v60.59h60.59c-5.06,15.15-24.24,48.47-60.59,60.59v30.3c0,33.46-27.13,60.59-60.59,60.59h-121.18c-33.46,0-60.59-27.13-60.59-60.59v-30.3c-36.35-12.12-55.53-45.44-60.59-60.59h60.59v-60.59c-36.35-12.12-55.53-45.44-60.59-60.59h60.59v-60.59c-36.35-12.12-55.53-45.44-60.59-60.59h60.59Zm60.59-30.3c-16.73,0-30.3,13.56-30.3,30.3v333.25c0,16.73,13.56,30.3,30.3,30.3h121.18c16.73,0,30.3-13.56,30.3-30.3v-333.25c0-16.73-13.56-30.3-30.3-30.3h-121.18Z"/>
  </g>
</svg>