<?xml version="1.0" encoding="UTF-8"?>
<svg id="Capa_1" data-name="Capa 1" xmlns="http://www.w3.org/2000/svg" xmlns:xlink="http://www.w3.org/1999/xlink" viewBox="0 0 2503.45 1222.17">
  <defs>
    <style>
      .cls-1, .cls-2, .cls-3, .cls-4, .cls-5, .cls-6 {
        stroke-width: 0px;
      }

      .cls-1, .cls-5 {
        fill: #d91111;
      }

      .cls-2 {
        filter: url(#drop-shadow-26);
      }

      .cls-2, .cls-3, .cls-4 {
        fill: #fff;
      }

      .cls-4 {
        filter: url(#drop-shadow-25);
      }

      .cls-5 {
        fill-rule: evenodd;
      }

      .cls-6 {
        fill: #a81414;
      }
    </style>
    <filter id="drop-shadow-25" filterUnits="userSpaceOnUse">
      <feOffset dx="3" dy="3"/>
      <feGaussianBlur result="blur" stdDeviation="3"/>
      <feFlood flood-color="#26130a" flood-opacity=".5"/>
      <feComposite in2="blur" operator="in"/>
      <feComposite in="SourceGraphic"/>
    </filter>
    <filter id="drop-shadow-26" filterUnits="userSpaceOnUse">
      <feOffset dx="7" dy="7"/>
      <feGaussianBlur result="blur-2" stdDeviation="5"/>
      <feFlood flood-color="#26130a" flood-opacity=".5"/>
      <feComposite in2="blur-2" operator="in"/>
      <feComposite in="SourceGraphic"/>
    </filter>
  </defs>
  <circle class="cls-1" cx="606.33" cy="611.08" r="525.8" transform="translate(-254.51 607.72) rotate(-45)"/>
  <path class="cls-4" d="m2196.05,341.64H728.6v545.98h1467.45c125.29,0,226.86-101.57,226.86-226.86v-92.26c0-125.29-101.57-226.86-226.86-226.86Z"/>
  <path class="cls-6" d="m2228.57,384.68H802.21v459.89h1426.37c80.26,0,145.55-103.15,145.55-229.94s-65.3-229.94-145.55-229.94Z"/>
  <circle class="cls-2" cx="606.33" cy="611.08" r="387.04"/>
  <g>
    <path class="cls-3" d="m1313.57,464.41h32c11.12,0,19.24,2.59,24.34,7.75,5.1,5.17,7.66,13.12,7.66,23.85v8.44c0,14.26-4.71,23.29-14.13,27.09v.39c5.23,1.57,8.93,4.78,11.09,9.62,2.16,4.84,3.24,11.32,3.24,19.43v24.14c0,3.93.13,7.1.39,9.52.26,2.42.91,4.81,1.96,7.16h-21.98c-.79-2.22-1.31-4.32-1.57-6.28-.26-1.96-.39-5.5-.39-10.6v-25.12c0-6.28-1.02-10.66-3.04-13.15-2.03-2.48-5.53-3.73-10.5-3.73h-7.46v58.89h-21.59v-137.4Zm29.44,58.89c4.32,0,7.56-1.11,9.72-3.34,2.16-2.22,3.24-5.95,3.24-11.19v-10.6c0-4.97-.88-8.57-2.65-10.8-1.77-2.22-4.55-3.34-8.34-3.34h-9.81v39.26h7.85Z"/>
    <path class="cls-3" d="m1412.3,464.41h58.89v19.63h-37.29v36.31h29.64v19.63h-29.64v42.2h37.29v19.63h-58.89v-137.4Z"/>
    <path class="cls-3" d="m1503.18,464.41h31.8c10.73,0,18.78,2.88,24.14,8.64,5.36,5.76,8.05,14.2,8.05,25.32v13.54c0,11.12-2.68,19.56-8.05,25.32-5.37,5.76-13.42,8.64-24.14,8.64h-10.21v55.94h-21.59v-137.4Zm31.8,61.83c3.53,0,6.18-.98,7.95-2.94s2.65-5.3,2.65-10.01v-16.29c0-4.71-.88-8.05-2.65-10.01s-4.42-2.94-7.95-2.94h-10.21v42.2h10.21Z"/>
    <path class="cls-3" d="m1605.45,594.74c-5.63-6.02-8.44-14.53-8.44-25.52v-72.23c0-10.99,2.81-19.5,8.44-25.52,5.62-6.02,13.74-9.03,24.34-9.03s18.71,3.01,24.34,9.03c5.62,6.02,8.44,14.53,8.44,25.52v72.23c0,10.99-2.82,19.5-8.44,25.52-5.63,6.02-13.74,9.03-24.34,9.03s-18.71-3.01-24.34-9.03Zm35.53-24.14v-74.98c0-9.03-3.73-13.54-11.19-13.54s-11.19,4.51-11.19,13.54v74.98c0,9.03,3.73,13.54,11.19,13.54s11.19-4.51,11.19-13.54Z"/>
    <path class="cls-3" d="m1696.72,464.41h32c11.12,0,19.24,2.59,24.34,7.75,5.1,5.17,7.66,13.12,7.66,23.85v8.44c0,14.26-4.71,23.29-14.13,27.09v.39c5.23,1.57,8.93,4.78,11.09,9.62,2.16,4.84,3.24,11.32,3.24,19.43v24.14c0,3.93.13,7.1.39,9.52.26,2.42.91,4.81,1.96,7.16h-21.98c-.79-2.22-1.31-4.32-1.57-6.28-.26-1.96-.39-5.5-.39-10.6v-25.12c0-6.28-1.02-10.66-3.04-13.15-2.03-2.48-5.53-3.73-10.5-3.73h-7.46v58.89h-21.59v-137.4Zm29.44,58.89c4.32,0,7.56-1.11,9.72-3.34,2.16-2.22,3.24-5.95,3.24-11.19v-10.6c0-4.97-.88-8.57-2.65-10.8-1.77-2.22-4.55-3.34-8.34-3.34h-9.81v39.26h7.85Z"/>
    <path class="cls-3" d="m1811.94,484.04h-22.57v-19.63h66.74v19.63h-22.57v117.77h-21.59v-117.77Z"/>
    <path class="cls-3" d="m1886.14,464.41h58.89v19.63h-37.29v36.31h29.64v19.63h-29.64v42.2h37.29v19.63h-58.89v-137.4Z"/>
    <path class="cls-3" d="m1193.64,766.59c-5.5-5.95-8.24-14.49-8.24-25.62v-72.23c0-11.12,2.75-19.66,8.24-25.62,5.5-5.95,13.48-8.93,23.95-8.93s18.45,2.98,23.95,8.93c5.5,5.96,8.24,14.5,8.24,25.62v11.78h-20.41v-13.15c0-9.03-3.73-13.54-11.19-13.54s-11.19,4.51-11.19,13.54v75.18c0,8.9,3.73,13.35,11.19,13.35s11.19-4.45,11.19-13.35v-26.89h-10.8v-19.63h31.21v44.95c0,11.12-2.75,19.66-8.24,25.62-5.5,5.96-13.48,8.93-23.95,8.93s-18.45-2.98-23.95-8.93Z"/>
    <path class="cls-3" d="m1283.34,636.16h58.89v19.63h-37.29v36.31h29.64v19.63h-29.64v42.2h37.29v19.63h-58.89v-137.4Z"/>
    <path class="cls-3" d="m1381.09,766.5c-5.63-6.02-8.44-14.53-8.44-25.52v-72.23c0-10.99,2.81-19.5,8.44-25.52,5.62-6.02,13.74-9.03,24.34-9.03s18.71,3.01,24.34,9.03c5.62,6.02,8.44,14.53,8.44,25.52v72.23c0,10.99-2.82,19.5-8.44,25.52-5.63,6.02-13.74,9.03-24.34,9.03s-18.71-3.01-24.34-9.03Zm35.53-24.14v-74.98c0-9.03-3.73-13.54-11.19-13.54s-11.19,4.51-11.19,13.54v74.98c0,9.03,3.73,13.54,11.19,13.54s11.19-4.51,11.19-13.54Z"/>
    <path class="cls-3" d="m1479.04,766.59c-5.5-5.95-8.24-14.49-8.24-25.62v-72.23c0-11.12,2.75-19.66,8.24-25.62,5.5-5.95,13.48-8.93,23.95-8.93s18.45,2.98,23.95,8.93c5.5,5.96,8.24,14.5,8.24,25.62v11.78h-20.41v-13.15c0-9.03-3.73-13.54-11.19-13.54s-11.19,4.51-11.19,13.54v75.18c0,8.9,3.73,13.35,11.19,13.35s11.19-4.45,11.19-13.35v-26.89h-10.8v-19.63h31.21v44.95c0,11.12-2.75,19.66-8.24,25.62-5.5,5.96-13.48,8.93-23.95,8.93s-18.45-2.98-23.95-8.93Z"/>
    <path class="cls-3" d="m1568.74,636.16h32c11.12,0,19.24,2.59,24.34,7.75,5.1,5.17,7.66,13.12,7.66,23.85v8.44c0,14.26-4.71,23.29-14.13,27.09v.39c5.23,1.57,8.93,4.78,11.09,9.62,2.16,4.84,3.24,11.32,3.24,19.43v24.14c0,3.93.13,7.1.39,9.52.26,2.42.91,4.81,1.96,7.16h-21.98c-.79-2.22-1.31-4.32-1.57-6.28-.26-1.96-.39-5.5-.39-10.6v-25.12c0-6.28-1.02-10.66-3.04-13.15-2.03-2.48-5.53-3.73-10.5-3.73h-7.46v58.89h-21.59v-137.4Zm29.44,58.89c4.32,0,7.56-1.11,9.72-3.34,2.16-2.22,3.24-5.95,3.24-11.19v-10.6c0-4.97-.88-8.57-2.65-10.8-1.77-2.22-4.55-3.34-8.34-3.34h-9.81v39.26h7.85Z"/>
    <path class="cls-3" d="m1684.16,636.16h29.25l22.38,137.4h-21.59l-3.93-27.28v.39h-24.54l-3.93,26.89h-20.02l22.38-137.4Zm16.68-31.8h23.55l-21,22.57h-16.29l13.74-22.57Zm6.87,123.66l-9.62-67.92h-.39l-9.42,67.92h19.43Z"/>
    <path class="cls-3" d="m1765.82,636.16h57.12v19.63h-35.53v38.28h27.87v19.63h-27.87v59.87h-21.59v-137.4Z"/>
    <path class="cls-3" d="m1852.97,636.16h21.59v137.4h-21.59v-137.4Z"/>
    <path class="cls-3" d="m1917.05,766.69c-5.43-5.89-8.15-14.2-8.15-24.93v-73.8c0-10.73,2.71-19.04,8.15-24.93,5.43-5.89,13.31-8.83,23.65-8.83s18.22,2.94,23.65,8.83c5.43,5.89,8.15,14.2,8.15,24.93v14.53h-20.41v-15.9c0-8.5-3.6-12.76-10.8-12.76s-10.8,4.25-10.8,12.76v76.75c0,8.38,3.6,12.56,10.8,12.56s10.8-4.19,10.8-12.56v-21h20.41v19.43c0,10.73-2.72,19.04-8.15,24.93-5.43,5.89-13.32,8.83-23.65,8.83s-18.22-2.94-23.65-8.83Z"/>
    <path class="cls-3" d="m2012.35,766.5c-5.63-6.02-8.44-14.53-8.44-25.52v-72.23c0-10.99,2.81-19.5,8.44-25.52,5.62-6.02,13.74-9.03,24.34-9.03s18.71,3.01,24.34,9.03c5.62,6.02,8.44,14.53,8.44,25.52v72.23c0,10.99-2.82,19.5-8.44,25.52-5.63,6.02-13.74,9.03-24.34,9.03s-18.71-3.01-24.34-9.03Zm35.53-24.14v-74.98c0-9.03-3.73-13.54-11.19-13.54s-11.19,4.51-11.19,13.54v74.98c0,9.03,3.73,13.54,11.19,13.54s11.19-4.51,11.19-13.54Z"/>
  </g>
  <g>
    <path class="cls-5" d="m490.03,687.03c2.24-2.99,5.76-4.75,9.49-4.75h59.34c6.55,0,11.87,5.31,11.87,11.87s-5.31,11.87-11.87,11.87h-53.4l-53.4,71.2h308.55l-53.4-71.2h-53.4c-6.55,0-11.87-5.31-11.87-11.87s5.31-11.87,11.87-11.87h59.34c3.74,0,7.25,1.76,9.49,4.75l71.2,94.94c3.93,5.24,2.87,12.68-2.37,16.61-2.05,1.54-4.55,2.37-7.12,2.37h-356.02c-6.55,0-11.87-5.31-11.87-11.87,0-2.57.83-5.07,2.37-7.12l71.2-94.94Z"/>
    <path class="cls-5" d="m511.39,516.14c0-52.43,42.51-94.93,94.95-94.93,52.43,0,94.93,42.51,94.93,94.95,0,47.84-35.61,88.21-83.07,94.19v131.28c0,6.55-5.31,11.87-11.87,11.87s-11.87-5.31-11.87-11.87v-131.25c-47.49-5.98-83.1-46.38-83.07-94.25v.02Z"/>
  </g>
</svg>