<?xml version="1.0" encoding="UTF-8"?>
<svg id="Capa_1" data-name="Capa 1" xmlns="http://www.w3.org/2000/svg" xmlns:xlink="http://www.w3.org/1999/xlink" viewBox="0 0 2503.45 1222.17">
  <defs>
    <style>
      .cls-1 {
        fill: #d91111;
      }

      .cls-1, .cls-2, .cls-3, .cls-4, .cls-5 {
        stroke-width: 0px;
      }

      .cls-2 {
        filter: url(#drop-shadow-17);
      }

      .cls-2, .cls-3, .cls-4 {
        fill: #fff;
      }

      .cls-4 {
        filter: url(#drop-shadow-18);
      }

      .cls-5 {
        fill: #a81414;
      }
    </style>
    <filter id="drop-shadow-17" filterUnits="userSpaceOnUse">
      <feOffset dx="3" dy="3"/>
      <feGaussianBlur result="blur" stdDeviation="3"/>
      <feFlood flood-color="#26130a" flood-opacity=".5"/>
      <feComposite in2="blur" operator="in"/>
      <feComposite in="SourceGraphic"/>
    </filter>
    <filter id="drop-shadow-18" filterUnits="userSpaceOnUse">
      <feOffset dx="7" dy="7"/>
      <feGaussianBlur result="blur-2" stdDeviation="5"/>
      <feFlood flood-color="#26130a" flood-opacity=".5"/>
      <feComposite in2="blur-2" operator="in"/>
      <feComposite in="SourceGraphic"/>
    </filter>
  </defs>
  <circle class="cls-1" cx="606.33" cy="611.08" r="525.8" transform="translate(-254.51 607.72) rotate(-45)"/>
  <path class="cls-2" d="m2196.05,341.64H728.6v545.98h1467.45c125.29,0,226.86-101.57,226.86-226.86v-92.26c0-125.29-101.57-226.86-226.86-226.86Z"/>
  <path class="cls-5" d="m2228.57,384.68H802.21v459.89h1426.37c80.26,0,145.55-103.15,145.55-229.94s-65.3-229.94-145.55-229.94Z"/>
  <circle class="cls-4" cx="606.33" cy="611.08" r="387.04"/>
  <g>
    <path class="cls-3" d="m1024.64,478.61h28.69c9.97,0,17.25,2.32,21.82,6.95,4.58,4.64,6.86,11.76,6.86,21.38v7.57c0,12.79-4.22,20.89-12.67,24.29v.35c4.69,1.41,8.01,4.28,9.95,8.62,1.94,4.34,2.9,10.15,2.9,17.42v21.65c0,3.52.12,6.37.35,8.54.23,2.17.82,4.31,1.76,6.42h-19.71c-.7-1.99-1.17-3.87-1.41-5.63-.24-1.76-.35-4.93-.35-9.5v-22.53c0-5.63-.91-9.56-2.73-11.79-1.82-2.23-4.96-3.34-9.42-3.34h-6.69v52.8h-19.36v-123.2Zm26.4,52.8c3.87,0,6.78-1,8.71-2.99,1.94-1.99,2.9-5.34,2.9-10.03v-9.5c0-4.46-.79-7.68-2.38-9.68-1.58-1.99-4.08-2.99-7.48-2.99h-8.8v35.2h7.04Z"/>
    <path class="cls-3" d="m1113.17,478.61h52.8v17.6h-33.44v32.56h26.58v17.6h-26.58v37.84h33.44v17.6h-52.8v-123.2Z"/>
    <path class="cls-3" d="m1194.66,478.61h28.51c9.62,0,16.84,2.58,21.65,7.74,4.81,5.16,7.22,12.73,7.22,22.7v12.14c0,9.97-2.41,17.54-7.22,22.7-4.81,5.16-12.03,7.74-21.65,7.74h-9.15v50.16h-19.36v-123.2Zm28.51,55.44c3.17,0,5.54-.88,7.13-2.64,1.58-1.76,2.38-4.75,2.38-8.98v-14.61c0-4.22-.79-7.22-2.38-8.98-1.58-1.76-3.96-2.64-7.13-2.64h-9.15v37.84h9.15Z"/>
    <path class="cls-3" d="m1286.35,595.47c-5.04-5.4-7.57-13.02-7.57-22.88v-64.77c0-9.86,2.52-17.48,7.57-22.88,5.04-5.4,12.32-8.1,21.82-8.1s16.78,2.7,21.82,8.1c5.04,5.4,7.57,13.02,7.57,22.88v64.77c0,9.86-2.53,17.48-7.57,22.88-5.05,5.4-12.32,8.1-21.82,8.1s-16.78-2.7-21.82-8.1Zm31.86-21.65v-67.23c0-8.1-3.35-12.14-10.03-12.14s-10.03,4.05-10.03,12.14v67.23c0,8.1,3.34,12.14,10.03,12.14s10.03-4.05,10.03-12.14Z"/>
    <path class="cls-3" d="m1368.19,478.61h28.69c9.97,0,17.25,2.32,21.82,6.95,4.58,4.64,6.87,11.76,6.87,21.38v7.57c0,12.79-4.22,20.89-12.67,24.29v.35c4.69,1.41,8.01,4.28,9.94,8.62,1.94,4.34,2.9,10.15,2.9,17.42v21.65c0,3.52.12,6.37.35,8.54.23,2.17.82,4.31,1.76,6.42h-19.71c-.71-1.99-1.17-3.87-1.41-5.63-.24-1.76-.35-4.93-.35-9.5v-22.53c0-5.63-.91-9.56-2.73-11.79-1.82-2.23-4.96-3.34-9.42-3.34h-6.69v52.8h-19.36v-123.2Zm26.4,52.8c3.87,0,6.78-1,8.71-2.99,1.94-1.99,2.9-5.34,2.9-10.03v-9.5c0-4.46-.79-7.68-2.38-9.68-1.58-1.99-4.08-2.99-7.48-2.99h-8.8v35.2h7.04Z"/>
    <path class="cls-3" d="m1471.5,496.21h-20.24v-17.6h59.84v17.6h-20.24v105.6h-19.36v-105.6Z"/>
    <path class="cls-3" d="m1538.03,478.61h52.8v17.6h-33.44v32.56h26.58v17.6h-26.58v37.84h33.44v17.6h-52.8v-123.2Z"/>
    <path class="cls-3" d="m1671.26,595.56c-4.93-5.34-7.39-12.99-7.39-22.97v-64.77c0-9.97,2.46-17.63,7.39-22.97,4.93-5.34,12.08-8.01,21.47-8.01s16.54,2.67,21.47,8.01c4.93,5.34,7.39,13,7.39,22.97v10.56h-18.3v-11.79c0-8.1-3.35-12.14-10.03-12.14s-10.03,4.05-10.03,12.14v67.41c0,7.98,3.34,11.97,10.03,11.97s10.03-3.99,10.03-11.97v-24.11h-9.68v-17.6h27.98v40.3c0,9.97-2.46,17.63-7.39,22.97-4.93,5.34-12.09,8.01-21.47,8.01s-16.54-2.67-21.47-8.01Z"/>
    <path class="cls-3" d="m1751.69,478.61h52.8v17.6h-33.44v32.56h26.58v17.6h-26.58v37.84h33.44v17.6h-52.8v-123.2Z"/>
    <path class="cls-3" d="m1833.18,478.61h24.29l18.83,73.74h.35v-73.74h17.25v123.2h-19.89l-23.23-89.94h-.35v89.94h-17.25v-123.2Z"/>
    <path class="cls-3" d="m1925.92,478.61h52.8v17.6h-33.44v32.56h26.58v17.6h-26.58v37.84h33.44v17.6h-52.8v-123.2Z"/>
    <path class="cls-3" d="m2007.41,478.61h28.69c9.97,0,17.25,2.32,21.82,6.95,4.58,4.64,6.86,11.76,6.86,21.38v7.57c0,12.79-4.22,20.89-12.67,24.29v.35c4.69,1.41,8.01,4.28,9.95,8.62,1.94,4.34,2.9,10.15,2.9,17.42v21.65c0,3.52.12,6.37.35,8.54.23,2.17.82,4.31,1.76,6.42h-19.71c-.7-1.99-1.17-3.87-1.41-5.63-.24-1.76-.35-4.93-.35-9.5v-22.53c0-5.63-.91-9.56-2.73-11.79-1.82-2.23-4.96-3.34-9.42-3.34h-6.69v52.8h-19.36v-123.2Zm26.4,52.8c3.87,0,6.78-1,8.71-2.99,1.94-1.99,2.9-5.34,2.9-10.03v-9.5c0-4.46-.79-7.68-2.38-9.68-1.58-1.99-4.08-2.99-7.48-2.99h-8.8v35.2h7.04Z"/>
    <path class="cls-3" d="m2110.9,478.61h26.22l20.06,123.2h-19.36l-3.52-24.46v.35h-22l-3.52,24.11h-17.95l20.06-123.2Zm21.12,82.37l-8.62-60.9h-.35l-8.45,60.9h17.42Z"/>
    <path class="cls-3" d="m2184.11,478.61h19.36v105.6h31.86v17.6h-51.21v-123.2Z"/>
    <path class="cls-3" d="m1044.97,650.36h29.57c9.62,0,16.83,2.58,21.65,7.74,4.81,5.16,7.22,12.73,7.22,22.7v62.3c0,9.97-2.41,17.54-7.22,22.7-4.81,5.16-12.03,7.74-21.65,7.74h-29.57v-123.2Zm29.21,105.6c3.17,0,5.6-.94,7.3-2.82,1.7-1.88,2.55-4.93,2.55-9.15v-64.06c0-4.22-.85-7.27-2.55-9.15-1.7-1.88-4.14-2.82-7.3-2.82h-9.86v88h9.86Z"/>
    <path class="cls-3" d="m1134.02,650.36h52.8v17.6h-33.44v32.56h26.58v17.6h-26.58v37.84h33.44v17.6h-52.8v-123.2Z"/>
    <path class="cls-3" d="m1265.14,767.31c-4.81-5.34-7.21-12.99-7.21-22.97v-7.04h18.3v8.45c0,7.98,3.34,11.97,10.03,11.97,3.28,0,5.78-.97,7.48-2.9,1.7-1.94,2.55-5.07,2.55-9.42,0-5.16-1.17-9.71-3.52-13.64-2.35-3.93-6.69-8.65-13.02-14.17-7.98-7.04-13.55-13.4-16.72-19.1-3.17-5.69-4.75-12.11-4.75-19.27,0-9.74,2.46-17.28,7.39-22.62,4.93-5.34,12.08-8.01,21.47-8.01s16.28,2.67,21.03,8.01c4.75,5.34,7.13,13,7.13,22.97v5.1h-18.3v-6.34c0-4.22-.82-7.3-2.46-9.24-1.64-1.94-4.05-2.9-7.22-2.9-6.45,0-9.68,3.93-9.68,11.79,0,4.46,1.2,8.62,3.61,12.5,2.4,3.87,6.78,8.57,13.11,14.08,8.1,7.04,13.67,13.44,16.72,19.18,3.05,5.75,4.57,12.5,4.57,20.24,0,10.09-2.49,17.84-7.48,23.23-4.99,5.4-12.23,8.1-21.74,8.1s-16.49-2.67-21.3-8.01Z"/>
    <path class="cls-3" d="m1344.34,650.36h52.8v17.6h-33.44v32.56h26.58v17.6h-26.58v37.84h33.44v17.6h-52.8v-123.2Z"/>
    <path class="cls-3" d="m1431.81,767.31c-4.93-5.34-7.39-12.99-7.39-22.97v-64.77c0-9.97,2.46-17.63,7.39-22.97,4.93-5.34,12.08-8.01,21.47-8.01s16.54,2.67,21.47,8.01c4.93,5.34,7.39,13,7.39,22.97v10.56h-18.3v-11.79c0-8.1-3.35-12.14-10.03-12.14s-10.03,4.05-10.03,12.14v67.41c0,7.98,3.34,11.97,10.03,11.97s10.03-3.99,10.03-11.97v-24.11h-9.68v-17.6h27.98v40.3c0,9.97-2.46,17.63-7.39,22.97-4.93,5.34-12.09,8.01-21.47,8.01s-16.54-2.67-21.47-8.01Z"/>
    <path class="cls-3" d="m1518.93,767.31c-4.93-5.34-7.39-12.99-7.39-22.97v-93.98h19.36v95.39c0,4.22.85,7.28,2.55,9.15,1.7,1.88,4.13,2.82,7.3,2.82s5.6-.94,7.3-2.82c1.7-1.88,2.55-4.93,2.55-9.15v-95.39h18.66v93.98c0,9.97-2.46,17.63-7.39,22.97-4.93,5.34-12.09,8.01-21.47,8.01s-16.54-2.67-21.47-8.01Z"/>
    <path class="cls-3" d="m1600.59,650.36h19.36v123.2h-19.36v-123.2Z"/>
    <path class="cls-3" d="m1651.98,650.36h27.63l12.32,88.18h.35l12.32-88.18h27.63v123.2h-18.3v-93.28h-.35l-14.08,93.28h-16.19l-14.08-93.28h-.35v93.28h-16.9v-123.2Z"/>
    <path class="cls-3" d="m1764.27,650.36h19.36v123.2h-19.36v-123.2Z"/>
    <path class="cls-3" d="m1815.66,650.36h52.8v17.6h-33.44v32.56h26.58v17.6h-26.58v37.84h33.44v17.6h-52.8v-123.2Z"/>
    <path class="cls-3" d="m1897.15,650.36h24.29l18.83,73.74h.35v-73.74h17.25v123.2h-19.89l-23.23-89.94h-.35v89.94h-17.25v-123.2Z"/>
    <path class="cls-3" d="m2005.03,667.96h-20.24v-17.6h59.84v17.6h-20.24v105.6h-19.36v-105.6Z"/>
    <path class="cls-3" d="m2077.02,767.23c-5.05-5.4-7.57-13.02-7.57-22.88v-64.77c0-9.86,2.52-17.48,7.57-22.88,5.04-5.4,12.32-8.1,21.82-8.1s16.78,2.7,21.82,8.1c5.04,5.4,7.57,13.02,7.57,22.88v64.77c0,9.86-2.52,17.48-7.57,22.88-5.05,5.4-12.32,8.1-21.82,8.1s-16.78-2.7-21.82-8.1Zm31.86-21.65v-67.23c0-8.1-3.34-12.14-10.03-12.14s-10.03,4.05-10.03,12.14v67.23c0,8.1,3.34,12.14,10.03,12.14s10.03-4.05,10.03-12.14Z"/>
    <path class="cls-3" d="m2162.73,767.31c-4.81-5.34-7.22-12.99-7.22-22.97v-7.04h18.3v8.45c0,7.98,3.34,11.97,10.03,11.97,3.28,0,5.78-.97,7.48-2.9,1.7-1.94,2.55-5.07,2.55-9.42,0-5.16-1.18-9.71-3.52-13.64-2.35-3.93-6.69-8.65-13.02-14.17-7.98-7.04-13.55-13.4-16.72-19.1-3.17-5.69-4.75-12.11-4.75-19.27,0-9.74,2.46-17.28,7.39-22.62,4.93-5.34,12.08-8.01,21.47-8.01s16.28,2.67,21.03,8.01c4.75,5.34,7.13,13,7.13,22.97v5.1h-18.3v-6.34c0-4.22-.82-7.3-2.46-9.24-1.64-1.94-4.05-2.9-7.22-2.9-6.46,0-9.68,3.93-9.68,11.79,0,4.46,1.2,8.62,3.61,12.5,2.4,3.87,6.78,8.57,13.11,14.08,8.1,7.04,13.67,13.44,16.72,19.18,3.05,5.75,4.58,12.5,4.58,20.24,0,10.09-2.49,17.84-7.48,23.23-4.99,5.4-12.23,8.1-21.74,8.1s-16.49-2.67-21.29-8.01Z"/>
  </g>
  <path class="cls-1" d="m641.48,393.58h-143.9c-30.03,0-54.38,24.34-54.38,54.38v326.25c0,30.03,24.34,54.38,54.38,54.38h217.5c30.03,0,54.38-24.34,54.38-54.38v-252.65c0-7.21-2.87-14.12-7.97-19.22l-100.78-100.78c-5.1-5.1-12.01-7.96-19.22-7.97Zm5.63,95.16v-54.38l81.56,81.56h-54.38c-15.02,0-27.19-12.17-27.19-27.19Zm-176.72,149.53h271.88v27.19h-190.31v54.38h190.31v27.19h-190.31v54.38h-27.19v-54.38h-54.38v-27.19h54.38v-54.38h-54.38v-27.19Z"/>
</svg>